<?xml version="1.0" encoding="utf-8"?>
<svg version="1.1" id="logo" xmlns="http://www.w3.org/2000/svg" xmlns:xlink="http://www.w3.org/1999/xlink" viewBox="0 0 960.1 158.6">
<path fill="#f2f1f3" d="M452.5,138.6c2.5,2.1,3,5.8,1.1,8.5l-5.8,8.6c-1.2,1.8-3.2,2.9-5.4,2.9h-16.8
    c-2.2,0-4.2-1.1-5.4-2.9l-5.8-8.6c-1.8-2.7-1.3-6.4,1.1-8.5l7.3-6.3c6.4-5.5,15.9-5.5,22.3,0L452.5,138.6z M57.2,57.3
    c-0.1-0.1-0.2-0.1-0.4-0.1l-23.8,0c-3.1,0-6.1,1.5-7.9,4.1l-3.7,5.2c-0.4,0.5-1,0.8-1.6,0.6c-0.6-0.1-1.1-0.6-1.3-1.2l-1.7-7.3
    c-0.4-1.7-2.2-2.8-3.9-2.4L2.5,58.7c-0.8,0.2-1.6,0.7-2,1.4c-0.5,0.7-0.6,1.6-0.4,2.4l5.3,22.6c0.2,0.7,0.3,1.5,0.3,2.2l0,45.3
    c0,1.8,1.4,3.3,3.2,3.3h10.7c1.8,0,3.2-1.4,3.2-3.2l0-35.5c0-2,0.6-4,1.8-5.6l9.3-13.1c1.8-2.6,4.8-4.1,7.9-4.1l8.8,0
    c1.5,0,3,0.4,4.3,1l7.4,3.7c1.6,0.8,3.5,0.2,4.3-1.4l4.8-9.5c0.8-1.6,0.2-3.5-1.4-4.3L57.2,57.3z M622.7,117.7
    c-0.6-1.3-0.9-2.7-0.9-4.1l0-37.6c0-2.4-0.9-4.7-2.5-6.5l-8.1-9c-1.8-2-4.5-3.2-7.2-3.2l-27.8,0c-3.1,0-6.1,1.5-7.9,4.1l-3.9,5.4
    c-0.3,0.5-0.9,0.7-1.5,0.6c-0.6-0.1-1-0.6-1.2-1.1l-1.8-7.5c-0.4-1.7-2.2-2.8-3.9-2.4l-10.4,2.4c-0.8,0.2-1.6,0.7-2,1.4
    c-0.5,0.7-0.6,1.6-0.4,2.4l5.3,22.6c0.2,0.7,0.3,1.5,0.3,2.2l0,45.3c0,1.8,1.4,3.2,3.2,3.2l10.7,0c0.9,0,1.7-0.3,2.3-0.9
    c0.6-0.6,1-1.4,1-2.3l0-35.5c0-2,0.6-4,1.8-5.6l9.3-13.1c1.8-2.6,4.8-4.1,7.9-4.1l11.4,0c2.7,0,5.4,1.2,7.2,3.2
    c0.7,0.8,1.1,1.8,1.1,2.9l0,36.9c0,1.4,0.3,2.8,0.9,4.1l6.7,14.3c0.4,0.8,1,1.4,1.8,1.7c0.8,0.3,1.7,0.3,2.5-0.1l9.7-4.5
    c0.8-0.4,1.4-1,1.7-1.8c0.3-0.8,0.3-1.7-0.1-2.5L622.7,117.7z M242.6,121.3c0.7-0.5,1.1-1.3,1.3-2.1c0.1-0.9-0.1-1.7-0.6-2.4
    l-6.4-8.5c-1.1-1.4-3.1-1.7-4.5-0.7l-12.4,9.3c-1.7,1.3-3.7,1.9-5.8,1.9h-15.8c-3.4,0-6.6-1.8-8.4-4.8l-1.7-2.9
    c-0.9-1.5-1.3-3.2-1.3-4.9V91.1c0-2,0.6-4,1.8-5.6l5-7c1.8-2.6,4.8-4.1,7.9-4.1l14.7,0c2.7,0,5.4,1.2,7.2,3.2l6.9,7.6
    c1.2,1.3,3.2,1.4,4.6,0.2l7.9-7.2c1.3-1.2,1.4-3.3,0.2-4.6l-12-13.3c-1.8-2-4.5-3.2-7.2-3.2l-31.1,0c-3.1,0-6.1,1.5-7.9,4.1
    L171.6,80c-1.2,1.6-1.8,3.6-1.8,5.6v25.2c0,1.7,0.5,3.4,1.3,4.9l9,15.4c1.7,3,4.9,4.8,8.4,4.8h31.3c2.1,0,4.1-0.7,5.8-1.9
    L242.6,121.3z M324.8,121.7c1.5-1,1.9-3,0.9-4.5l-6-8.8c-1-1.5-3-1.9-4.5-0.9l-14.1,9.6c-1.6,1.1-3.5,1.7-5.4,1.7h-15.1
    c-3.5,0-6.8-1.9-8.5-5l-1.5-2.7c-0.8-1.5-1.2-3.1-1.2-4.8V91.1c0-2,0.6-4,1.8-5.6l5-7c1.8-2.6,4.8-4.1,7.9-4.1l14.7,0
    c2.7,0,5.4,1.2,7.2,3.2l6.9,7.6c1.2,1.3,3.3,1.4,4.6,0.2l7.9-7.2c1.3-1.2,1.4-3.2,0.2-4.6l-12-13.3c-1.8-2-4.5-3.2-7.2-3.2l-31.1,0
    c-3.1,0-6.1,1.5-7.9,4.1L254,80c-1.2,1.6-1.8,3.6-1.8,5.6v25.3c0,1.7,0.4,3.3,1.2,4.8l8.6,15.4c1.7,3.1,5,5,8.5,5h30.4
    c1.9,0,3.8-0.6,5.4-1.7L324.8,121.7z M148.7,137c-0.8,0.2-1.7,0.1-2.5-0.3c-0.7-0.4-1.3-1.1-1.5-1.9l-2.1-7.5l-14.1,7.5
    c-1.4,0.8-3,1.1-4.6,1.1H93c-3.8,0-7.2-2.2-8.8-5.6l-8.4-17.9c-2-4.3-0.7-9.3,3.2-12l17.1-12.2c1.6-1.2,3.6-1.8,5.6-1.8h26.8
    c0.8,0,1.5,0.1,2.3,0.3l7.5,1.8c0-0.3-0.1-0.6-0.3-0.9l-6.5-9.1c-1.8-2.6-4.8-4.1-7.9-4.1l-17.5,0c-1.8,0-3.6,0.5-5.2,1.5l-10.3,6.5
    c-0.7,0.5-1.6,0.6-2.4,0.4c-0.8-0.2-1.6-0.7-2-1.4l-5.7-9c-1-1.5-0.5-3.5,1-4.5L96,58.7c1.5-1,3.3-1.5,5.2-1.5l31.3,0
    c3.1,0,6.1,1.5,7.9,4.1L153.7,80c1.2,1.6,1.8,3.6,1.8,5.6v23c0,0.9,0.1,1.8,0.4,2.6l5.3,18.9c0.5,1.7-0.5,3.5-2.2,4L148.7,137z
     M136.7,111c1-0.6,1.7-1.7,1.7-2.8c0-1.2-0.8-2.2-2-2.5l-7.6-1.8c-0.7-0.2-1.5-0.3-2.3-0.3h-19.3c-2,0-4,0.6-5.6,1.8l-5.4,3.9
    c-1.3,0.9-1.7,2.6-1,4v0c1.6,3.4,5,5.6,8.8,5.6h15.7c1.6,0,3.2-0.4,4.6-1.1L136.7,111z M368.7,52.8c0.7-0.5,1.2-1.2,1.4-2.1
    c0.2-0.8,0-1.7-0.5-2.4l-4.8-7.2c-0.8-1.1-0.7-2.6,0.1-3.7l10.4-13.9c0.6-0.8,1.4-1.2,2.4-1.3c0.9-0.1,1.9,0.3,2.5,0.9l11.6,11.4
    c1.1,1.1,2.8,1.2,4.1,0.4l9.2-6.1c0.8-0.5,1.3-1.4,1.4-2.4c0.1-1-0.3-1.9-1-2.6L382.4,1c0,0,0,0,0,0c-1-1-2.5-1.2-3.7-0.6l-7.8,3.9
    c-2.6,1.3-4.8,3.1-6.5,5.4l-18.8,25.1c-1.7,2.3-1.8,5.4-0.2,7.8l10.1,15.2c0.5,0.7,1.2,1.2,2.1,1.4c0.8,0.2,1.7,0,2.4-0.5
    L368.7,52.8z M534.7,106.8l-22.5,25.7c-1,1.2-2.3,2.1-3.6,2.8l-6.2,3.1c-1.9,1-4.1,1.1-6.1,0.4L462,126.3c-3.4-1.2-6.1-3.8-7.5-7.1
    l-18.2-42.5c-0.4-0.9-1.3-1.5-2.3-1.5c-1,0-1.9,0.6-2.3,1.5l-18.2,42.5c-1.4,3.3-4.1,5.9-7.5,7.1l-34.2,12.4c-2,0.7-4.2,0.6-6.1-0.4
    l-6.2-3.1c-1.4-0.7-2.6-1.6-3.6-2.8l-22.5-25.7c-1.8-2.1-2.4-5-1.5-7.7l3.2-9.5c0.7-2.2,2.2-4.1,4.2-5.4l36.5-23.5
    c7.3-4.7,16.2-6.1,24.5-3.8l24.9,6.8c5.8,1.6,11.9,1.6,17.8,0l24.9-6.8c8.3-2.3,17.3-0.9,24.5,3.8l36.5,23.5c2,1.3,3.4,3.1,4.2,5.4
    l3.2,9.5C537.1,101.7,536.5,104.7,534.7,106.8z M411.2,78.6c-0.4-0.8-1.1-1.4-1.9-1.6l-13.7-3.7c-3.5-1-7.3-0.4-10.4,1.6l-33.4,22
    c-0.7,0.5-1.2,1.3-1.3,2.1c-0.1,0.9,0.2,1.7,0.8,2.4l16.4,17.4c1.4,1.4,3.4,1.9,5.3,1.3l20.4-7.4c3.4-1.2,6.1-3.8,7.5-7.1l10.5-24.6
    C411.6,80.3,411.6,79.4,411.2,78.6z M517.7,99.1c-0.1-0.9-0.6-1.6-1.3-2.1l-33.4-22c-3.1-2-6.9-2.6-10.4-1.6l-13.7,3.7
    c-0.8,0.2-1.5,0.8-1.9,1.6c-0.4,0.8-0.4,1.7-0.1,2.5l10.5,24.6c1.4,3.3,4.1,5.9,7.5,7.1l20.4,7.4c1.9,0.7,3.9,0.2,5.3-1.3l16.4-17.4
    C517.5,100.8,517.8,100,517.7,99.1z M508.2,58.7c0.7,0.5,1.6,0.6,2.4,0.5c0.8-0.2,1.6-0.7,2.1-1.4l10.1-15.2
    c1.6-2.4,1.5-5.5-0.2-7.8L503.8,9.7c-1.7-2.3-3.9-4.1-6.5-5.4l-7.8-3.9c-1.2-0.6-2.7-0.4-3.7,0.6c0,0,0,0,0,0l-23.2,22.8
    c-0.7,0.7-1,1.6-1,2.6c0.1,1,0.6,1.9,1.4,2.4l9.2,6.1c1.3,0.8,3,0.7,4.1-0.4l11.6-11.4c0.7-0.7,1.6-1,2.5-0.9
    c0.9,0.1,1.8,0.5,2.4,1.3l10.4,13.9c0.8,1.1,0.9,2.6,0.1,3.7l-4.8,7.2c-0.5,0.7-0.7,1.6-0.5,2.4c0.2,0.8,0.7,1.6,1.4,2.1L508.2,58.7
    z M888.3,80.3v31.2h14l3.2-3.2V83.6l-3.2-3.2H888.3z M756.8,80.3l-3.6,3.3v24.7l3.6,3.2h11.9l3.6-3.3V83.6l-3.6-3.3H756.8z
     M819.1,91.5v-8.2l-3-2.9h-14.2v14.1h14.2L819.1,91.5z M960.1,84.5v44.4c0,3.8-3.1,6.8-6.8,6.8H665.9c-6.8,0-13-4-15.7-10.3
    l-3.4-7.8c-2.7-6.1-4-12.8-4-19.5v-34c0-3.8,3.1-6.8,6.8-6.8h283.8c4.7,0,9.2,1.9,12.4,5.3l9.6,10.1
    C958.4,75.9,960.1,80.1,960.1,84.5z M735.9,74.5l-6.9-1.9l-8.1,28.8l-0.7,4.2h-0.2l-0.7-4.2l-7.6-25.6h-6.9l-7.6,25.6l-0.7,4.2H696
    l-0.7-4.2l-8.1-28.8l-6.9,1.9l12.3,43.6h6.6l8.1-27.5l0.7-4.2h0.2l0.7,4.2l8.1,27.5h6.6L735.9,74.5z M779.5,80.9l-7.9-7.2H754
    l-7.9,7.2v30l7.9,7.2h17.7l7.9-7.2V80.9z M827,114.6l-11.8-12.9l-1.4-1.1l0.1-0.2l1.4,0.6h4.1l6.8-6.7V80.5l-6.8-6.7h-24.7v44.3h7.2
    V101h3.1l16.7,18.4L827,114.6z M869,111.5h-20.8V73.8H841v44.3h28V111.5z M912.7,81.1l-7.2-7.3h-24.4v44.3h24.4l7.2-7.3V81.1z"/>
</svg>
