<svg xmlns="http://www.w3.org/2000/svg" viewBox="0 0 960.1 158.6"><path fill="#f2f1f3" d="M452.5 138.6c2.5 2.1 3 5.8 1.1 8.5l-5.8 8.6c-1.2 1.8-3.2 2.9-5.4 2.9h-16.8c-2.2 0-4.2-1.1-5.4-2.9l-5.8-8.6c-1.8-2.7-1.3-6.4 1.1-8.5l7.3-6.3c6.4-5.5 15.9-5.5 22.3 0l7.4 6.3zM57.2 57.3c-.1-.1-.2-.1-.4-.1H33c-3.1 0-6.1 1.5-7.9 4.1l-3.7 5.2c-.4.5-1 .8-1.6.6-.6-.1-1.1-.6-1.3-1.2l-1.7-7.3c-.4-1.7-2.2-2.8-3.9-2.4L2.5 58.7c-.8.2-1.6.7-2 1.4-.5.7-.6 1.6-.4 2.4l5.3 22.6c.2.7.3 1.5.3 2.2v45.3c0 1.8 1.4 3.3 3.2 3.3h10.7c1.8 0 3.2-1.4 3.2-3.2V97.2c0-2 .6-4 1.8-5.6l9.3-13.1c1.8-2.6 4.8-4.1 7.9-4.1h8.8c1.5 0 3 .4 4.3 1l7.4 3.7c1.6.8 3.5.2 4.3-1.4l4.8-9.5c.8-1.6.2-3.5-1.4-4.3l-12.8-6.6zm565.5 60.4c-.6-1.3-.9-2.7-.9-4.1V76c0-2.4-.9-4.7-2.5-6.5l-8.1-9c-1.8-2-4.5-3.2-7.2-3.2h-27.8c-3.1 0-6.1 1.5-7.9 4.1l-3.9 5.4c-.3.5-.9.7-1.5.6-.6-.1-1-.6-1.2-1.1l-1.8-7.5c-.4-1.7-2.2-2.8-3.9-2.4l-10.4 2.4c-.8.2-1.6.7-2 1.4-.5.7-.6 1.6-.4 2.4l5.3 22.6c.2.7.3 1.5.3 2.2v45.3c0 1.8 1.4 3.2 3.2 3.2h10.7c.9 0 1.7-.3 2.3-.9.6-.6 1-1.4 1-2.3V97.2c0-2 .6-4 1.8-5.6l9.3-13.1c1.8-2.6 4.8-4.1 7.9-4.1h11.4c2.7 0 5.4 1.2 7.2 3.2.7.8 1.1 1.8 1.1 2.9v36.9c0 1.4.3 2.8.9 4.1l6.7 14.3c.4.8 1 1.4 1.8 1.7.8.3 1.7.3 2.5-.1l9.7-4.5c.8-.4 1.4-1 1.7-1.8.3-.8.3-1.7-.1-2.5l-5.2-10.9zm-380.1 3.6c.7-.5 1.1-1.3 1.3-2.1.1-.9-.1-1.7-.6-2.4l-6.4-8.5c-1.1-1.4-3.1-1.7-4.5-.7l-12.4 9.3c-1.7 1.3-3.7 1.9-5.8 1.9h-15.8c-3.4 0-6.6-1.8-8.4-4.8l-1.7-2.9c-.9-1.5-1.3-3.2-1.3-4.9V91.1c0-2 .6-4 1.8-5.6l5-7c1.8-2.6 4.8-4.1 7.9-4.1h14.7c2.7 0 5.4 1.2 7.2 3.2l6.9 7.6c1.2 1.3 3.2 1.4 4.6.2l7.9-7.2c1.3-1.2 1.4-3.3.2-4.6l-12-13.3c-1.8-2-4.5-3.2-7.2-3.2h-31.1c-3.1 0-6.1 1.5-7.9 4.1L171.6 80c-1.2 1.6-1.8 3.6-1.8 5.6v25.2c0 1.7.5 3.4 1.3 4.9l9 15.4c1.7 3 4.9 4.8 8.4 4.8h31.3c2.1 0 4.1-.7 5.8-1.9l17-12.7zm82.2.4c1.5-1 1.9-3 .9-4.5l-6-8.8c-1-1.5-3-1.9-4.5-.9l-14.1 9.6c-1.6 1.1-3.5 1.7-5.4 1.7h-15.1c-3.5 0-6.8-1.9-8.5-5l-1.5-2.7c-.8-1.5-1.2-3.1-1.2-4.8V91.1c0-2 .6-4 1.8-5.6l5-7c1.8-2.6 4.8-4.1 7.9-4.1h14.7c2.7 0 5.4 1.2 7.2 3.2l6.9 7.6c1.2 1.3 3.3 1.4 4.6.2l7.9-7.2c1.3-1.2 1.4-3.2.2-4.6l-12-13.3c-1.8-2-4.5-3.2-7.2-3.2h-31.1c-3.1 0-6.1 1.5-7.9 4.1L254 80c-1.2 1.6-1.8 3.6-1.8 5.6v25.3c0 1.7.4 3.3 1.2 4.8l8.6 15.4c1.7 3.1 5 5 8.5 5h30.4c1.9 0 3.8-.6 5.4-1.7l18.5-12.7zM148.7 137c-.8.2-1.7.1-2.5-.3-.7-.4-1.3-1.1-1.5-1.9l-2.1-7.5-14.1 7.5c-1.4.8-3 1.1-4.6 1.1H93c-3.8 0-7.2-2.2-8.8-5.6l-8.4-17.9c-2-4.3-.7-9.3 3.2-12l17.1-12.2c1.6-1.2 3.6-1.8 5.6-1.8h26.8c.8 0 1.5.1 2.3.3l7.5 1.8c0-.3-.1-.6-.3-.9l-6.5-9.1c-1.8-2.6-4.8-4.1-7.9-4.1h-17.5c-1.8 0-3.6.5-5.2 1.5l-10.3 6.5c-.7.5-1.6.6-2.4.4-.8-.2-1.6-.7-2-1.4l-5.7-9c-1-1.5-.5-3.5 1-4.5L96 58.7c1.5-1 3.3-1.5 5.2-1.5h31.3c3.1 0 6.1 1.5 7.9 4.1L153.7 80c1.2 1.6 1.8 3.6 1.8 5.6v23c0 .9.1 1.8.4 2.6l5.3 18.9c.5 1.7-.5 3.5-2.2 4l-10.3 2.9zm-12-26c1-.6 1.7-1.7 1.7-2.8 0-1.2-.8-2.2-2-2.5l-7.6-1.8c-.7-.2-1.5-.3-2.3-.3h-19.3c-2 0-4 .6-5.6 1.8l-5.4 3.9c-1.3.9-1.7 2.6-1 4 1.6 3.4 5 5.6 8.8 5.6h15.7c1.6 0 3.2-.4 4.6-1.1l12.4-6.8zm232-58.2c.7-.5 1.2-1.2 1.4-2.1.2-.8 0-1.7-.5-2.4l-4.8-7.2c-.8-1.1-.7-2.6.1-3.7l10.4-13.9c.6-.8 1.4-1.2 2.4-1.3.9-.1 1.9.3 2.5.9l11.6 11.4c1.1 1.1 2.8 1.2 4.1.4l9.2-6.1c.8-.5 1.3-1.4 1.4-2.4.1-1-.3-1.9-1-2.6L382.4 1c-1-1-2.5-1.2-3.7-.6l-7.8 3.9c-2.6 1.3-4.8 3.1-6.5 5.4l-18.8 25.1c-1.7 2.3-1.8 5.4-.2 7.8l10.1 15.2c.5.7 1.2 1.2 2.1 1.4.8.2 1.7 0 2.4-.5l8.7-5.9zm166 54l-22.5 25.7c-1 1.2-2.3 2.1-3.6 2.8l-6.2 3.1c-1.9 1-4.1 1.1-6.1.4L462 126.3c-3.4-1.2-6.1-3.8-7.5-7.1l-18.2-42.5c-.4-.9-1.3-1.5-2.3-1.5-1 0-1.9.6-2.3 1.5l-18.2 42.5c-1.4 3.3-4.1 5.9-7.5 7.1l-34.2 12.4c-2 .7-4.2.6-6.1-.4l-6.2-3.1c-1.4-.7-2.6-1.6-3.6-2.8l-22.5-25.7c-1.8-2.1-2.4-5-1.5-7.7l3.2-9.5c.7-2.2 2.2-4.1 4.2-5.4l36.5-23.5c7.3-4.7 16.2-6.1 24.5-3.8l24.9 6.8c5.8 1.6 11.9 1.6 17.8 0l24.9-6.8c8.3-2.3 17.3-.9 24.5 3.8l36.5 23.5c2 1.3 3.4 3.1 4.2 5.4l3.2 9.5c.8 2.7.2 5.7-1.6 7.8zM411.2 78.6c-.4-.8-1.1-1.4-1.9-1.6l-13.7-3.7c-3.5-1-7.3-.4-10.4 1.6l-33.4 22c-.7.5-1.2 1.3-1.3 2.1-.1.9.2 1.7.8 2.4l16.4 17.4c1.4 1.4 3.4 1.9 5.3 1.3l20.4-7.4c3.4-1.2 6.1-3.8 7.5-7.1L411.4 81c.2-.7.2-1.6-.2-2.4zm106.5 20.5c-.1-.9-.6-1.6-1.3-2.1L483 75c-3.1-2-6.9-2.6-10.4-1.6l-13.7 3.7c-.8.2-1.5.8-1.9 1.6-.4.8-.4 1.7-.1 2.5l10.5 24.6c1.4 3.3 4.1 5.9 7.5 7.1l20.4 7.4c1.9.7 3.9.2 5.3-1.3l16.4-17.4c.5-.8.8-1.6.7-2.5zm-9.5-40.4c.7.5 1.6.6 2.4.5.8-.2 1.6-.7 2.1-1.4l10.1-15.2c1.6-2.4 1.5-5.5-.2-7.8L503.8 9.7c-1.7-2.3-3.9-4.1-6.5-5.4L489.5.4c-1.2-.6-2.7-.4-3.7.6l-23.2 22.8c-.7.7-1 1.6-1 2.6.1 1 .6 1.9 1.4 2.4l9.2 6.1c1.3.8 3 .7 4.1-.4l11.6-11.4c.7-.7 1.6-1 2.5-.9.9.1 1.8.5 2.4 1.3l10.4 13.9c.8 1.1.9 2.6.1 3.7l-4.8 7.2c-.5.7-.7 1.6-.5 2.4.2.8.7 1.6 1.4 2.1l8.8 5.9zm380.1 21.6v31.2h14l3.2-3.2V83.6l-3.2-3.2h-14zm-131.5 0l-3.6 3.3v24.7l3.6 3.2h11.9l3.6-3.3V83.6l-3.6-3.3h-11.9zm62.3 11.2v-8.2l-3-2.9h-14.2v14.1h14.2l3-3zm141-7v44.4c0 3.8-3.1 6.8-6.8 6.8H665.9c-6.8 0-13-4-15.7-10.3l-3.4-7.8c-2.7-6.1-4-12.8-4-19.5v-34c0-3.8 3.1-6.8 6.8-6.8h283.8c4.7 0 9.2 1.9 12.4 5.3l9.6 10.1c3 3.2 4.7 7.4 4.7 11.8zm-224.2-10l-6.9-1.9-8.1 28.8-.7 4.2h-.2l-.7-4.2-7.6-25.6h-6.9l-7.6 25.6-.7 4.2h-.5l-.7-4.2-8.1-28.8-6.9 1.9 12.3 43.6h6.6l8.1-27.5.7-4.2h.2l.7 4.2 8.1 27.5h6.6l12.3-43.6zm43.6 6.4l-7.9-7.2H754l-7.9 7.2v30l7.9 7.2h17.7l7.9-7.2v-30zm47.5 33.7l-11.8-12.9-1.4-1.1.1-.2 1.4.6h4.1l6.8-6.7V80.5l-6.8-6.7h-24.7v44.3h7.2V101h3.1l16.7 18.4 5.3-4.8zm42-3.1h-20.8V73.8H841v44.3h28v-6.6zm43.7-30.4l-7.2-7.3h-24.4v44.3h24.4l7.2-7.3V81.1z"/></svg>